<svg width="20" height="20" viewBox="0 0 20 20" fill="none" xmlns="http://www.w3.org/2000/svg">
<g id="Frame">
<path id="Vector" d="M8.01567 2.76562H3.62505C2.75005 2.76562 2.0313 3.48437 2.0313 4.375C2.00005 5.23438 2.68755 5.95312 3.54692 5.98437H8.06255L8.01567 2.76562Z" fill="#073042"/>
<path id="Vector_2" d="M17.9688 17.0781H3.625C2.73438 17.0781 2.03125 16.3594 2.03125 15.4688V4.35938C2.03125 5.25 2.75 5.96875 3.625 5.98438H15.6406C15.6406 5.98438 17.9844 5.78125 17.9844 7.54688V17.0781H17.9688Z" fill="#4285F4"/>
<path id="Vector_3" d="M11.2812 11.3907C11.9219 10.9063 12.0469 10 11.5625 9.37504C11.2969 9.03129 10.8906 8.81254 10.4531 8.79691H10.5C10.5781 8.78129 10.6719 8.78129 10.75 8.79691V7.90629C10.75 7.79691 10.7031 7.70316 10.6094 7.65629C10.4688 7.57816 10.2969 7.62504 10.2188 7.76566C10.1875 7.81254 10.1719 7.85941 10.1875 7.92191V8.82816C9.40625 8.95316 8.85938 9.68754 8.98438 10.4844V10.5C9.04688 10.875 9.25 11.2188 9.5625 11.4375L6.92188 17.0938H8.64062L9.85938 14.5C10 14.1875 10.375 14.0469 10.7031 14.2032C10.8281 14.2657 10.9375 14.375 11 14.5L12.2656 17.0938H14.0156L11.2812 11.3907ZM10.3906 11.1407C9.89062 11.1407 9.5 10.7344 9.5 10.2344C9.5 9.73441 9.90625 9.34379 10.4062 9.35941C10.6406 9.35941 10.8438 9.45316 11.0156 9.60941C11.375 9.95316 11.375 10.5157 11.0312 10.875C10.875 11.0313 10.6406 11.1407 10.3906 11.1407Z" fill="#3870B2"/>
<path id="Vector_4" d="M7.0625 3.54688H13.2187V4.67187H7.0625V3.54688Z" fill="white"/>
<path id="Vector_5" d="M9.92185 9.34379C10.4062 9.34379 10.8125 9.75004 10.7969 10.25C10.7969 10.7344 10.3906 11.1407 9.8906 11.125C9.40623 11.125 9.0156 10.7188 9.0156 10.2344C9.0156 10 9.10935 9.78129 9.28123 9.60941C9.4531 9.43754 9.68748 9.34379 9.92185 9.34379ZM10.2656 8.82816V7.89066C10.2656 7.78129 10.2187 7.68754 10.125 7.64066C9.98435 7.56254 9.81248 7.60941 9.73435 7.75004C9.7031 7.79691 9.68748 7.84379 9.7031 7.90629V8.81254C8.92185 8.93754 8.37498 9.67191 8.49998 10.4688V10.4844C8.56248 10.8594 8.7656 11.2032 9.0781 11.4219L5.74998 18.5625C5.62498 18.8125 5.6406 19.125 5.81248 19.3594C6.06248 19.7188 6.54685 19.8125 6.90623 19.5625C7.03123 19.4844 7.12498 19.3594 7.18748 19.2344L9.40623 14.4844C9.54685 14.1719 9.92185 14.0313 10.25 14.1875C10.375 14.25 10.4844 14.3594 10.5469 14.4844L12.8125 19.1875C13 19.5782 13.4687 19.7344 13.8594 19.5469C14.25 19.3594 14.4062 18.8907 14.2187 18.5L10.7969 11.3907C11.4219 10.8907 11.5312 9.96879 11.0312 9.34379C10.8437 9.09379 10.5781 8.92191 10.2656 8.82816Z" fill="#073042"/>
<path id="Vector_6" d="M12.3125 4.54688C12.0781 4.54688 11.8906 4.375 11.8906 4.14063C11.8906 4.03125 11.9375 3.90625 12.0156 3.82813C12.1875 3.67188 12.4375 3.67188 12.6094 3.82813C12.6875 3.90625 12.7344 4.01563 12.7344 4.125C12.7187 4.35938 12.5469 4.53125 12.3125 4.54688ZM7.6875 4.53125C7.45313 4.53125 7.26562 4.34375 7.26562 4.125C7.26562 4.01563 7.3125 3.90625 7.39062 3.82813C7.53125 3.65625 7.79688 3.625 7.96875 3.76563H7.98437C8.15625 3.92188 8.17188 4.1875 8.01562 4.35938L7.96875 4.42188C7.89062 4.5 7.78125 4.54688 7.67187 4.54688M12.4375 2.01563L13.2656 0.578125C13.3125 0.5 13.2812 0.40625 13.2188 0.34375C13.1406 0.3125 13.0625 0.328125 13.0156 0.390625L12.1562 1.875C10.7812 1.26563 9.21875 1.26563 7.85938 1.875L7.01563 0.40625C6.98438 0.359375 6.92188 0.3125 6.85938 0.3125C6.79688 0.3125 6.73438 0.34375 6.70313 0.40625C6.67188 0.453125 6.67188 0.53125 6.70313 0.578125L7.54688 2.01563C6.07812 2.8125 5.125 4.3125 4.98438 5.96875H15.0156C14.8906 4.29688 13.9219 2.8125 12.4531 2.01563" fill="#3DDC84"/>
<path id="Vector_7" d="M16.5 9.07812H15.8438C15.8125 9.09375 15.7812 9.125 15.7812 9.17188V19.5625C15.7812 19.6094 15.8125 19.6406 15.8594 19.6406H16.5469C17.3438 19.6406 17.9844 18.9844 17.9844 18.2031V7.625C17.9844 8.42188 17.3438 9.0625 16.5469 9.0625H16.5V9.07812Z" fill="#073042"/>
</g>
</svg>
