<svg width="20" height="20" viewBox="0 0 20 20" fill="none" xmlns="http://www.w3.org/2000/svg">
<g id="Frame">
<path id="Vector" d="M2.34146 4.33004C2.30443 3.2652 3.13397 2.28333 4.25537 2.28333H15.746C16.8674 2.28333 17.6969 3.2652 17.6599 4.33004C17.6243 5.35286 17.6705 6.67786 18.004 7.75817C18.3385 8.84192 18.9026 9.52676 19.8265 9.61489V10.6129C18.9026 10.701 18.3385 11.3858 18.004 12.4696C17.6705 13.5499 17.6243 14.8749 17.6599 15.8977C17.6969 16.9625 16.8674 17.9443 15.746 17.9443H4.25537C3.13397 17.9443 2.30443 16.9624 2.34146 15.8977C2.37709 14.8749 2.33084 13.5499 1.99725 12.4696C1.66287 11.386 1.09725 10.701 0.17334 10.6129V9.61489C1.09725 9.52692 1.66287 8.84192 1.99725 7.75817C2.33084 6.67786 2.37693 5.35286 2.34146 4.33004Z" fill="url(#paint0_linear_1510_247)"/>
<g id="Vector_2" filter="url(#filter0_d_1510_247)">
<path d="M10.4859 14.3338C12.3013 14.3338 13.3953 13.4449 13.3953 11.9787C13.3953 10.8705 12.6147 10.0681 11.4557 9.9411V9.89492C12.3072 9.75639 12.9755 8.9656 12.9755 8.08245C12.9755 6.82409 11.982 6.00439 10.4681 6.00439H7.06189V14.3338H10.4859ZM8.38653 7.06073H10.1488C11.1068 7.06073 11.6508 7.48787 11.6508 8.26136C11.6508 9.08681 11.0181 9.54858 9.87086 9.54858H8.38653V7.06073ZM8.38653 13.2775V10.5356H10.1369C11.3906 10.5356 12.0411 10.9974 12.0411 11.8979C12.0411 12.7984 11.4084 13.2775 10.2138 13.2775H8.38653Z" fill="url(#paint1_linear_1510_247)"/>
<path d="M10.4859 14.3338C12.3013 14.3338 13.3953 13.4449 13.3953 11.9787C13.3953 10.8705 12.6147 10.0681 11.4557 9.9411V9.89492C12.3072 9.75639 12.9755 8.9656 12.9755 8.08245C12.9755 6.82409 11.982 6.00439 10.4681 6.00439H7.06189V14.3338H10.4859ZM8.38653 7.06073H10.1488C11.1068 7.06073 11.6508 7.48787 11.6508 8.26136C11.6508 9.08681 11.0181 9.54858 9.87086 9.54858H8.38653V7.06073ZM8.38653 13.2775V10.5356H10.1369C11.3906 10.5356 12.0411 10.9974 12.0411 11.8979C12.0411 12.7984 11.4084 13.2775 10.2138 13.2775H8.38653Z" stroke="white" stroke-width="0.0383844"/>
</g>
</g>
<defs>
<filter id="filter0_d_1510_247" x="6.42857" y="5.52462" width="7.60013" height="9.5961" filterUnits="userSpaceOnUse" color-interpolation-filters="sRGB">
<feFlood flood-opacity="0" result="BackgroundImageFix"/>
<feColorMatrix in="SourceAlpha" type="matrix" values="0 0 0 0 0 0 0 0 0 0 0 0 0 0 0 0 0 0 127 0" result="hardAlpha"/>
<feOffset dy="0.153537"/>
<feGaussianBlur stdDeviation="0.307075"/>
<feColorMatrix type="matrix" values="0 0 0 0 0 0 0 0 0 0 0 0 0 0 0 0 0 0 0.15 0"/>
<feBlend mode="normal" in2="BackgroundImageFix" result="effect1_dropShadow_1510_247"/>
<feBlend mode="normal" in="SourceGraphic" in2="effect1_dropShadow_1510_247" result="shape"/>
</filter>
<linearGradient id="paint0_linear_1510_247" x1="3.09374" y1="2.6978" x2="20.267" y2="16.3301" gradientUnits="userSpaceOnUse">
<stop stop-color="#9013FE"/>
<stop offset="1" stop-color="#6610F2"/>
</linearGradient>
<linearGradient id="paint1_linear_1510_247" x1="7.66115" y1="6.55252" x2="11.4996" y2="13.0445" gradientUnits="userSpaceOnUse">
<stop stop-color="white"/>
<stop offset="1" stop-color="#F1E5FC"/>
</linearGradient>
</defs>
</svg>
