<svg width="20" height="20" viewBox="0 0 20 20" fill="none" xmlns="http://www.w3.org/2000/svg">
<g id="Frame" clip-path="url(#clip0_1510_330)">
<path id="Vector" d="M10.0006 4.00037C7.33389 4.00037 5.6678 5.33318 5.00061 7.9999C6.0003 6.66693 7.16733 6.16709 8.5003 6.50037C9.26139 6.69005 9.8053 7.24193 10.4076 7.85349C11.388 8.84834 12.5226 10.0001 15.0006 10.0001C17.6672 10.0001 19.3334 8.66708 20.0006 5.99974C19.0008 7.33349 17.8339 7.83334 16.5008 7.50005C15.7398 7.31021 15.1965 6.75849 14.5934 6.14693C13.6137 5.15209 12.4794 4.00037 10.0006 4.00037ZM5.00061 10.0001C2.33405 10.0001 0.667798 11.333 0.000610352 14.0004C1.0003 12.6666 2.16717 12.1668 3.5003 12.5001C4.26139 12.6899 4.8053 13.2416 5.40764 13.8532C6.38795 14.848 7.52264 15.9997 10.0006 15.9997C12.6672 15.9997 14.3334 14.6669 15.0006 12.0002C14.0008 13.3332 12.8339 13.833 11.5008 13.4997C10.7398 13.3101 10.1965 12.7582 9.59342 12.1466C8.61374 11.1518 7.47936 10.0001 5.00061 10.0001Z" fill="#38B2AC"/>
</g>
<defs>
<clipPath id="clip0_1510_330">
<rect width="20" height="20" fill="white"/>
</clipPath>
</defs>
</svg>
